<svg xmlns="http://www.w3.org/2000/svg" viewBox="0 0 64 64" role="img" aria-label="Weibo">
  <rect width="64" height="64" rx="18" fill="#f0442e"/>
  <path fill="#fff" d="M28.3 47.7c-10.8 0-19.5-5.3-19.5-11.9 0-4.2 3.5-8 8.9-10.1-.2-.8-.3-1.7-.1-2.6.6-3.5 4.2-5.8 8.1-5.1 1.9.3 3.5 1.2 4.6 2.5 1.8-1.1 3.9-1.7 6.1-1.7 7.6 0 13.8 6.1 13.8 13.6 0 8.5-9.8 15.3-21.9 15.3Z"/>
  <path fill="#1d1d1f" d="M30.7 42.3c-6.6 1.1-12.5-1.8-13.2-6.3-.8-4.5 3.9-9 10.5-10.1 6.6-1.1 12.5 1.8 13.2 6.3.8 4.6-3.9 9.1-10.5 10.1Z" opacity=".88"/>
  <path fill="#fff" d="M26.1 34.6c-.5 1.5-2.1 2.4-3.5 1.9-1.4-.5-2-2.1-1.5-3.6.6-1.5 2.1-2.4 3.5-1.9 1.4.5 2.1 2.1 1.5 3.6Zm8.9-1.4c-.4 1-1.4 1.6-2.3 1.3-.9-.3-1.4-1.4-1-2.4.4-1 1.4-1.6 2.3-1.3.9.3 1.4 1.4 1 2.4Z"/>
  <path fill="#ffd65a" d="M44.1 15.7c3.9 1.1 6.7 4.3 7.1 8.2.1 1.1-.7 2-1.7 2.1-1.1.1-2-.7-2.1-1.7-.2-2.3-1.9-4.3-4.3-5-.9-.3-1.5-1.3-1.2-2.3.3-1 1.3-1.5 2.2-1.3Zm2.4-6.1c6.5 1.8 11.2 7.3 11.9 13.9.1 1.1-.7 2-1.7 2.1-1.1.1-2-.7-2.1-1.7-.5-5.1-4.2-9.3-9.1-10.7-1-.3-1.6-1.3-1.3-2.3.3-1 1.3-1.6 2.3-1.3Z"/>
</svg>
